<svg xmlns="http://www.w3.org/2000/svg" xmlns:xlink="http://www.w3.org/1999/xlink" width="128" height="128" viewBox="0 0 33.867 33.867"><defs><linearGradient id="b"><stop offset="0" stop-color="#d90947"/><stop offset="1" stop-color="#ff585b"/></linearGradient><linearGradient id="a"><stop offset="0" stop-color="#f5f8ff"/><stop offset="1" stop-color="#a0c9ff"/></linearGradient><linearGradient id="d" x1="2.734" x2="19.133" y1="10.279" y2="10.279" gradientTransform="matrix(.16691 .56159 -.6075 .1543 21.202 7.862)" gradientUnits="userSpaceOnUse" xlink:href="#a"/><linearGradient id="c" x1="16.933" x2="16.933" y1="30.163" y2="2.381" gradientUnits="userSpaceOnUse" xlink:href="#b"/></defs><path fill="url(#c)" d="M6.35 3.704h21.167a5.28 5.28 0 0 1 5.291 5.292V24.87a5.28 5.28 0 0 1-5.291 5.292H6.35a5.28 5.28 0 0 1-5.292-5.292V8.996A5.28 5.28 0 0 1 6.35 3.704z" paint-order="fill markers stroke"/><path d="M2.117 27.024v.263h.53v-.263zm1.322 0v.263h.53v-.263zm1.324 0v.263h.53v-.263zm1.323 0v.263h.529v-.263zm1.322 0v.263h.53v-.263zm1.324 0v.263h.53v-.263zm1.322 0v.263h.53v-.263zm1.323 0v.263h.529v-.263zm1.324 0v.263h.529v-.263zm1.322 0v.263h.53v-.263zm1.323 0v.263h.529v-.263zm1.324 0v.263h.529v-.263zm1.322 0v.263h.53v-.263zm1.322 0v.263h.53v-.263zm1.324 0v.263h.53v-.263zm1.323 0v.263h.529v-.263zm1.322 0v.263h.53v-.263zm1.324 0v.263h.528v-.263zm1.322 0v.263h.53v-.263zm1.323 0v.263h.529v-.263zm1.322 0v.263h.53v-.263zm1.322 0v.263h.53v-.263zm1.325 0v.263h.529v-.263z" style="line-height:normal;font-variant-ligatures:normal;font-variant-position:normal;font-variant-caps:normal;font-variant-numeric:normal;font-variant-alternates:normal;font-variant-east-asian:normal;font-feature-settings:normal;font-variation-settings:normal;text-indent:0;text-align:start;text-decoration-line:none;text-decoration-style:solid;text-decoration-color:#000;text-transform:none;text-orientation:mixed;white-space:normal;shape-padding:0;shape-margin:0;inline-size:0;isolation:auto;mix-blend-mode:normal;solid-color:#000;solid-opacity:1" fill="#8c092f" color="#000" font-family="sans-serif" font-weight="400" overflow="visible" paint-order="markers fill stroke"/><path fill="url(#d)" d="M13.315 21.222c-1.115-.587-1.113-3.646-1.12-4.831-.009-1.186-.053-4.245 1.054-4.844 1.107-.6 3.972.931 5.087 1.518 1.115.586 4.002 2.08 4.01 3.266.008 1.186-2.858 2.714-3.965 3.313-1.107.6-3.95 2.164-5.066 1.578z" paint-order="fill markers stroke"/><path d="M2.117 6.386v.264h.53v-.264zm1.322 0v.264h.53v-.264zm1.324 0v.264h.53v-.264zm1.323 0v.264h.529v-.264zm1.322 0v.264h.53v-.264zm1.324 0v.264h.53v-.264zm1.322 0v.264h.53v-.264zm1.323 0v.264h.529v-.264zm1.324 0v.264h.529v-.264zm1.322 0v.264h.53v-.264zm1.323 0v.264h.529v-.264zm1.324 0v.264h.529v-.264zm1.322 0v.264h.53v-.264zm1.322 0v.264h.53v-.264zm1.324 0v.264h.53v-.264zm1.323 0v.264h.529v-.264zm1.322 0v.264h.53v-.264zm1.324 0v.264h.528v-.264zm1.322 0v.264h.53v-.264zm1.323 0v.264h.529v-.264zm1.322 0v.264h.53v-.264zm1.322 0v.264h.53v-.264zm1.325 0v.264h.529v-.264z" style="line-height:normal;font-variant-ligatures:normal;font-variant-position:normal;font-variant-caps:normal;font-variant-numeric:normal;font-variant-alternates:normal;font-variant-east-asian:normal;font-feature-settings:normal;font-variation-settings:normal;text-indent:0;text-align:start;text-decoration-line:none;text-decoration-style:solid;text-decoration-color:#000;text-transform:none;text-orientation:mixed;white-space:normal;shape-padding:0;shape-margin:0;inline-size:0;isolation:auto;mix-blend-mode:normal;solid-color:#000;solid-opacity:1" fill="#8c092f" color="#000" font-family="sans-serif" font-weight="400" overflow="visible" paint-order="markers fill stroke"/></svg>